STARTFONT 2.1
FONT SwissKeys Raster Mono
SIZE 10 173 173
FONTBOUNDINGBOX 18 35 0 -6
STARTPROPERTIES 37
FAMILY_NAME "SwissKeys Raster Mono"
DEFAULT_CHAR -1
FOUNDRY "SwissMicros"
COPYRIGHT "©2021 SwissMicros GmbH"
CODEPAGE "MS Windows 1252 Western (ANSI)"
ENC_MODE 2
DESIGNER "Emy Amstein"
CREATION_YEAR 2021
WEIGHT_NAME "Normal"
SLANT "R"
SETWIDTH_NAME "Normal"
SPACING "P"
HI_VERSION 1
MAC_FONT_STYLE 1
FONTNAME_REGISTRY "-"
BREAK_CHAR 32
PIXEL_SIZE 24
POINT_SIZE 100
FONT_ASCENT 24
FONT_DESCENT 6
RESOLUTION_X 173
RESOLUTION_Y 173
AVERAGE_WIDTH 120
MIN_SPACE 13
NORM_SPACE 18
MAX_SPACE 27
END_SPACE 18
SUPERSCRIPT_X 10
SUPERSCRIPT_Y 10
SUBSCRIPT_X 10
SUBSCRIPT_Y 10
X_HEIGHT 18
AVG_CAPITAL_WIDTH 18
AVG_LOWERCASE_WIDTH 18
CAP_HEIGHT 24
FIGURE_WIDTH 18
SUBSCRIPT_SIZE 14
ENDPROPERTIES
CHARS 132
STARTCHAR ch00.uni0000
ENCODING 0
SWIDTH 2466 0
DWIDTH 18 0
BBX 14 20 2 0
BITMAP
0780
0FC0
0FC0
0FC0
0FC0
0780
0000
0000
FFFC
FFFC
FFFC
FFFC
0000
0000
0780
0FC0
0FC0
0FC0
0FC0
0780
ENDCHAR
STARTCHAR ch02.uni0002
ENCODING 2
SWIDTH 2466 0
DWIDTH 18 0
BBX 16 24 1 0
BITMAP
00FF
00FF
00FF
00FF
00F0
00F0
00F0
00F0
00F0
00F0
00F0
10F0
38F0
78F0
FCF0
7EF0
3EF0
1FF0
0FF0
07F0
03F0
01F0
00F0
0070
ENDCHAR
STARTCHAR ch09.uni0009
ENCODING 9
SWIDTH 2466 0
DWIDTH 18 0
BBX 16 23 1 0
BITMAP
0003
000F
007F
01FF
0FFC
3FF0
FF80
FE00
F000
FE00
FF80
3FF0
0FFC
C1FF
F07F
FE0F
FF83
3FF0
0FFC
01FF
007F
000F
0003
ENDCHAR
STARTCHAR ch0a.uni000A
ENCODING 10
SWIDTH 2466 0
DWIDTH 18 0
BBX 16 24 1 0
BITMAP
E000
E000
E000
E000
E000
E000
E000
E000
E000
FE00
FE00
FE00
00FF
00FF
00FF
00E0
00E0
00FE
00FE
00FE
00E0
00E0
00E0
00E0
ENDCHAR
STARTCHAR ch0d.uni000D
ENCODING 13
SWIDTH 2466 0
DWIDTH 18 0
BBX 16 18 1 0
BITMAP
0007
0007
0007
0007
0007
0007
0007
0007
0007
0087
0387
0F07
3FFF
FFFF
3FFE
0F00
0380
0080
ENDCHAR
STARTCHAR ch20.uni0020
ENCODING 32
SWIDTH 2466 0
DWIDTH 18 0
BBX 0 0 0 0
BITMAP
ENDCHAR
STARTCHAR ch21.uni0021
ENCODING 33
SWIDTH 2466 0
DWIDTH 18 0
BBX 4 24 7 0
BITMAP
F000
F000
F000
F000
F000
F000
F000
F000
F000
F000
F000
F000
F000
F000
F000
F000
F000
0000
0000
0000
F000
F000
F000
F000
ENDCHAR
STARTCHAR ch22.uni0022
ENCODING 34
SWIDTH 2466 0
DWIDTH 18 0
BBX 11 8 4 16
BITMAP
F1E0
F1E0
F1E0
F1E0
F1E0
60C0
60C0
60C0
ENDCHAR
STARTCHAR ch23.uni0023
ENCODING 35
SWIDTH 2466 0
DWIDTH 18 0
BBX 16 23 1 0
BITMAP
0E70
0E70
0E70
0E70
0E70
0E70
FFFF
FFFF
FFFF
FFFF
0E70
0E70
0E70
FFFF
FFFF
FFFF
FFFF
0E70
0E70
0E70
0E70
0E70
0E70
ENDCHAR
STARTCHAR ch24.uni0024
ENCODING 36
SWIDTH 2466 0
DWIDTH 18 0
BBX 16 28 1 -2
BITMAP
01C0
01C0
01C0
07F0
1FFC
3FFE
3FFE
7DDF
79CF
7DCC
7FC0
3FC0
1FF0
0FF8
03FE
01FE
01DF
31DF
F1CF
F9CF
7DDF
7FFE
3FFE
1FFC
07F0
01C0
01C0
01C0
ENDCHAR
STARTCHAR ch25.uni0025
ENCODING 37
SWIDTH 2466 0
DWIDTH 18 0
BBX 16 24 1 0
BITMAP
1807
7E0E
7E0E
E71C
E71C
E738
E738
7E70
7EE0
18E0
01C0
01C0
0380
0380
0718
077E
0E7E
1CE7
1CE7
38E7
38E7
707E
707E
E018
ENDCHAR
STARTCHAR ch26.uni0026
ENCODING 38
SWIDTH 2466 0
DWIDTH 18 0
BBX 17 23 1 0
BITMAP
03000000
0FC00000
1FE00000
1FE00000
3CF00000
38700000
38F00000
3DE00000
1FE00000
1FC00000
0F800000
1F800000
3FC00000
7FE60000
79FF0000
F0FF0000
F07E0000
F07C0000
F8FE0000
7FFF0000
7FEF8000
3FC70000
0F020000
ENDCHAR
STARTCHAR ch27.uni0027
ENCODING 39
SWIDTH 2466 0
DWIDTH 18 0
BBX 4 8 7 16
BITMAP
F000
F000
F000
F000
F000
6000
6000
6000
ENDCHAR
STARTCHAR ch28.uni0028
ENCODING 40
SWIDTH 2466 0
DWIDTH 18 0
BBX 8 30 7 -3
BITMAP
0F00
1E00
1E00
3C00
3C00
7C00
7800
7800
7800
F800
F800
F000
F000
F000
F000
F000
F000
F000
F000
F800
F800
7800
7800
7800
7C00
3C00
3C00
1E00
1E00
0F00
ENDCHAR
STARTCHAR ch29.uni0029
ENCODING 41
SWIDTH 2466 0
DWIDTH 18 0
BBX 8 30 3 -3
BITMAP
F000
7800
7800
3C00
3C00
3E00
1E00
1E00
1E00
1F00
1F00
0F00
0F00
0F00
0F00
0F00
0F00
0F00
0F00
1F00
1F00
1E00
1E00
1E00
3E00
3C00
3C00
7800
7800
F000
ENDCHAR
STARTCHAR ch2a.uni002A
ENCODING 42
SWIDTH 2466 0
DWIDTH 18 0
BBX 16 16 1 2
BITMAP
03C0
03C0
03C0
63C6
7BDE
FFFF
3FFC
0FF0
0FF0
3FFC
FFFF
7BDE
63C6
03C0
03C0
03C0
ENDCHAR
STARTCHAR ch2b.uni002B
ENCODING 43
SWIDTH 2466 0
DWIDTH 18 0
BBX 16 16 1 2
BITMAP
03C0
03C0
03C0
03C0
03C0
03C0
FFFF
FFFF
FFFF
FFFF
03C0
03C0
03C0
03C0
03C0
03C0
ENDCHAR
STARTCHAR ch2c.uni002C
ENCODING 44
SWIDTH 2466 0
DWIDTH 18 0
BBX 5 10 6 -5
BITMAP
F800
F800
F800
F800
F800
3800
3000
7000
E000
4000
ENDCHAR
STARTCHAR ch2d.uni002D
ENCODING 45
SWIDTH 2466 0
DWIDTH 18 0
BBX 14 4 2 8
BITMAP
FFFC
FFFC
FFFC
FFFC
ENDCHAR
STARTCHAR ch2e.uni002E
ENCODING 46
SWIDTH 2466 0
DWIDTH 18 0
BBX 5 5 6 0
BITMAP
F800
F800
F800
F800
F800
ENDCHAR
STARTCHAR ch2f.uni002F
ENCODING 47
SWIDTH 2466 0
DWIDTH 18 0
BBX 12 24 3 0
BITMAP
00F0
00E0
01E0
01E0
01C0
03C0
03C0
0380
0780
0780
0700
0F00
0F00
0E00
1E00
1E00
1C00
3C00
3C00
3800
7800
7800
7000
F000
ENDCHAR
STARTCHAR ch30.uni0030
ENCODING 48
SWIDTH 621 0
DWIDTH 18 0
BBX 16 24 1 0
BITMAP
03C0
0FF0
1FF8
3FFC
3E7C
7C3E
783E
787E
F8FF
F8FF
F1EF
F3CF
F3CF
F78F
FF1F
FF1F
7E1E
7C1E
7C3E
3E7C
3FFC
1FF8
0FF0
03C0
ENDCHAR
STARTCHAR ch31.uni0031
ENCODING 49
SWIDTH 621 0
DWIDTH 18 0
BBX 14 24 2 0
BITMAP
0380
0380
0780
0780
1F80
FF80
FF80
FF80
F780
0780
0780
0780
0780
0780
0780
0780
0780
0780
0780
0780
FFFC
FFFC
FFFC
FFFC
ENDCHAR
STARTCHAR ch32.uni0032
ENCODING 50
SWIDTH 621 0
DWIDTH 18 0
BBX 15 24 1 0
BITMAP
07C0
1FF0
3FF8
7FFC
7C7C
F83E
F01E
F01E
F01E
003E
007E
00FC
03FC
07F8
0FF0
1FC0
3F00
3E00
7800
7000
FFFE
FFFE
FFFE
FFFE
ENDCHAR
STARTCHAR ch33.uni0033
ENCODING 51
SWIDTH 621 0
DWIDTH 18 0
BBX 16 25 1 -1
BITMAP
07E0
1FF8
3FFC
7FFC
7C3E
F81E
F01E
F01E
003E
007C
03F8
03E0
03F0
03FC
003E
001E
F01F
F01F
F01F
F83E
7EFE
7FFC
3FF8
1FF0
0380
ENDCHAR
STARTCHAR ch34.uni0034
ENCODING 52
SWIDTH 621 0
DWIDTH 18 0
BBX 16 24 1 0
BITMAP
007C
007C
00FC
01FC
01FC
03FC
07BC
07BC
0F3C
1E3C
1E3C
3C3C
783C
783C
F03C
FFFF
FFFF
FFFF
FFFF
003C
003C
003C
003C
003C
ENDCHAR
STARTCHAR ch35.uni0035
ENCODING 53
SWIDTH 621 0
DWIDTH 18 0
BBX 16 24 1 0
BITMAP
7FFE
7FFE
7FFE
7FFE
7800
7800
7800
7800
79E0
7FF8
7FFC
7FFE
7C3E
181F
000F
000F
000F
300F
F81F
7C3E
7FFE
3FFC
1FF8
07E0
ENDCHAR
STARTCHAR ch36.uni0036
ENCODING 54
SWIDTH 621 0
DWIDTH 18 0
BBX 16 24 1 0
BITMAP
03E0
0FF8
1FFC
3FFC
3E3E
7C1E
7818
7800
F8F0
F3F8
F7FC
F7FE
FE1E
FC0F
F80F
F80F
780F
780F
7C1F
3E3E
3FFE
1FFC
0FF8
03E0
ENDCHAR
STARTCHAR ch37.uni0037
ENCODING 55
SWIDTH 621 0
DWIDTH 18 0
BBX 16 24 1 0
BITMAP
FFFF
FFFF
FFFF
FFFF
F01F
F01E
003C
0078
0078
00F0
01F0
01E0
03E0
03C0
07C0
07C0
07C0
0780
0F80
0F80
0F80
0F80
0F80
0F80
ENDCHAR
STARTCHAR ch38.uni0038
ENCODING 56
SWIDTH 621 0
DWIDTH 18 0
BBX 16 24 1 0
BITMAP
07E0
1FF8
3FFC
3FFC
7C3E
781E
781E
781E
781E
3C3C
1FF8
0FF0
3FFC
7C3E
781E
F00F
F00F
F00F
F81F
FC3F
7FFE
3FFC
1FF8
07E0
ENDCHAR
STARTCHAR ch39.uni0039
ENCODING 57
SWIDTH 621 0
DWIDTH 18 0
BBX 16 24 1 0
BITMAP
07C0
1FF0
3FF8
7FFC
7C7C
F83E
F01E
F01E
F01F
F01F
F03F
787F
7FEF
3FEF
1FCF
0F1F
001E
001E
183E
7C7C
7FFC
3FF8
1FF0
07C0
ENDCHAR
STARTCHAR ch3a.uni003A
ENCODING 58
SWIDTH 2466 0
DWIDTH 18 0
BBX 5 17 6 0
BITMAP
F800
F800
F800
F800
F800
0000
0000
0000
0000
0000
0000
0000
F800
F800
F800
F800
F800
ENDCHAR
STARTCHAR ch3b.uni003B
ENCODING 59
SWIDTH 2466 0
DWIDTH 18 0
BBX 5 22 6 -5
BITMAP
F800
F800
F800
F800
F800
0000
0000
0000
0000
0000
0000
0000
F800
F800
F800
F800
F800
3800
3000
7000
E000
4000
ENDCHAR
STARTCHAR ch3c.uni003C
ENCODING 60
SWIDTH 2466 0
DWIDTH 18 0
BBX 16 18 1 1
BITMAP
0003
000F
003F
00FF
03FC
0FF0
3FC0
FF00
F800
F800
FF00
3FC0
0FF0
03FC
00FF
003F
000F
0003
ENDCHAR
STARTCHAR ch3d.uni003D
ENCODING 61
SWIDTH 2466 0
DWIDTH 18 0
BBX 16 12 1 4
BITMAP
FFFF
FFFF
FFFF
FFFF
0000
0000
0000
0000
FFFF
FFFF
FFFF
FFFF
ENDCHAR
STARTCHAR ch3e.uni003E
ENCODING 62
SWIDTH 2466 0
DWIDTH 18 0
BBX 16 18 1 1
BITMAP
C000
F000
FC00
FF00
3FC0
0FF0
03FC
00FF
001F
001F
00FF
03FC
0FF0
3FC0
FF00
FC00
F000
C000
ENDCHAR
STARTCHAR ch3f.uni003F
ENCODING 63
SWIDTH 2466 0
DWIDTH 18 0
BBX 16 24 1 0
BITMAP
07F0
1FFC
3FFE
7FFE
7C1F
F80F
F00F
F01F
F03E
00FE
01FC
01F0
03E0
03C0
03C0
03C0
03C0
0000
0000
0000
03C0
03C0
03C0
03C0
ENDCHAR
STARTCHAR ch40.uni0040
ENCODING 64
SWIDTH 2466 0
DWIDTH 18 0
BBX 16 20 1 2
BITMAP
03E0
0FF8
3FFC
3E1E
780E
70E7
F3FF
E3FF
E70F
E707
E707
E70F
E3FF
F3FF
70F3
7800
3C08
3FFC
1FF8
07E0
ENDCHAR
STARTCHAR ch41.uni0041
ENCODING 65
SWIDTH 621 0
DWIDTH 18 0
BBX 16 24 1 0
BITMAP
07E0
07E0
07E0
07E0
0FF0
0FF0
0FF0
0E70
1E78
1E78
1E78
1C38
3C3C
3C3C
3C3C
3FFC
7FFE
7FFE
7FFE
781E
F81F
F00F
F00F
F00F
ENDCHAR
STARTCHAR ch42.uni0042
ENCODING 66
SWIDTH 621 0
DWIDTH 18 0
BBX 16 24 1 0
BITMAP
FFE0
FFF8
FFFC
FFFC
F03E
F01E
F01E
F01E
F01E
F03E
FFFC
FFF8
FFF8
FFFE
F01E
F00F
F00F
F00F
F00F
F01F
FFFE
FFFE
FFFC
FFF0
ENDCHAR
STARTCHAR ch43.uni0043
ENCODING 67
SWIDTH 621 0
DWIDTH 18 0
BBX 16 24 1 0
BITMAP
03E0
0FF8
1FFC
3FFE
3E3E
7C1F
780F
780C
F800
F800
F000
F000
F000
F000
F800
F800
780C
780F
7C1F
3E3E
3FFE
1FFC
0FF8
03E0
ENDCHAR
STARTCHAR ch44.uni0044
ENCODING 68
SWIDTH 621 0
DWIDTH 18 0
BBX 16 24 1 0
BITMAP
FFC0
FFF0
FFF8
FFFC
F07C
F03E
F01E
F01E
F01F
F01F
F00F
F00F
F00F
F00F
F01F
F01F
F01E
F01E
F03E
F07C
FFFC
FFF8
FFF0
FFC0
ENDCHAR
STARTCHAR ch45.uni0045
ENCODING 69
SWIDTH 621 0
DWIDTH 18 0
BBX 16 24 1 0
BITMAP
FFFF
FFFF
FFFF
FFFF
F000
F000
F000
F000
F000
F000
FFFC
FFFC
FFFC
FFFC
F000
F000
F000
F000
F000
F000
FFFF
FFFF
FFFF
FFFF
ENDCHAR
STARTCHAR ch46.uni0046
ENCODING 70
SWIDTH 621 0
DWIDTH 18 0
BBX 16 24 1 0
BITMAP
FFFF
FFFF
FFFF
FFFF
F000
F000
F000
F000
F000
F000
FFFC
FFFC
FFFC
FFFC
F000
F000
F000
F000
F000
F000
F000
F000
F000
F000
ENDCHAR
STARTCHAR ch47.uni0047
ENCODING 71
SWIDTH 2466 0
DWIDTH 18 0
BBX 16 24 1 0
BITMAP
03E0
0FF8
1FFC
3FFE
3E3E
7C1F
780F
F80C
F800
F000
F000
F0FF
F0FF
F0FF
F0FF
F80F
F80F
781F
7C1F
7E3F
3FFF
1FF7
1FF7
07C7
ENDCHAR
STARTCHAR ch48.uni0048
ENCODING 72
SWIDTH 2466 0
DWIDTH 18 0
BBX 16 24 1 0
BITMAP
F00F
F00F
F00F
F00F
F00F
F00F
F00F
F00F
F00F
F00F
FFFF
FFFF
FFFF
FFFF
F00F
F00F
F00F
F00F
F00F
F00F
F00F
F00F
F00F
F00F
ENDCHAR
STARTCHAR ch49.uni0049
ENCODING 73
SWIDTH 621 0
DWIDTH 18 0
BBX 14 24 2 0
BITMAP
FFFC
FFFC
FFFC
FFFC
0780
0780
0780
0780
0780
0780
0780
0780
0780
0780
0780
0780
0780
0780
0780
0780
FFFC
FFFC
FFFC
FFFC
ENDCHAR
STARTCHAR ch4a.uni004A
ENCODING 74
SWIDTH 2466 0
DWIDTH 18 0
BBX 16 24 1 0
BITMAP
03FF
03FF
03FF
03FF
003C
003C
003C
003C
003C
003C
003C
003C
003C
003C
F03C
F03C
F03C
F03C
F87C
7CF8
7FF8
3FF0
1FE0
0780
ENDCHAR
STARTCHAR ch4b.uni004B
ENCODING 75
SWIDTH 2466 0
DWIDTH 18 0
BBX 16 24 1 0
BITMAP
F01F
F03E
F03C
F07C
F0F8
F0F0
F1E0
F3E0
F3C0
F780
FF00
FF80
FF80
FFC0
F9C0
F1E0
F0F0
F0F0
F078
F078
F03C
F03E
F01E
F01F
ENDCHAR
STARTCHAR ch4c.uni004C
ENCODING 76
SWIDTH 2466 0
DWIDTH 18 0
BBX 16 24 1 0
BITMAP
F000
F000
F000
F000
F000
F000
F000
F000
F000
F000
F000
F000
F000
F000
F000
F000
F000
F000
F000
F000
FFFF
FFFF
FFFF
FFFF
ENDCHAR
STARTCHAR ch4d.uni004D
ENCODING 77
SWIDTH 621 0
DWIDTH 18 0
BBX 16 24 1 0
BITMAP
F00F
F00F
F81F
F81F
F81F
F81F
FC3F
FC3F
FC3F
FC3F
FE7F
FE7F
FE7F
FE7F
FFFF
F7EF
F7EF
F7EF
F3CF
F3CF
F3CF
F18F
F18F
F18F
ENDCHAR
STARTCHAR ch4e.uni004E
ENCODING 78
SWIDTH 621 0
DWIDTH 18 0
BBX 16 24 1 0
BITMAP
F80F
F80F
FC0F
FC0F
FE0F
FE0F
FF0F
FF0F
FF8F
F78F
F7CF
F3CF
F3EF
F1EF
F1FF
F0FF
F0FF
F07F
F07F
F03F
F03F
F01F
F01F
F00F
ENDCHAR
STARTCHAR ch4f.uni004F
ENCODING 79
SWIDTH 621 0
DWIDTH 18 0
BBX 16 24 1 0
BITMAP
07E0
1FF8
3FFC
3FFC
7C3E
781E
781E
781E
F00F
F00F
F00F
F00F
F00F
F00F
F00F
F00F
781E
781E
781E
7C3E
3FFC
3FFC
1FF8
07E0
ENDCHAR
STARTCHAR ch50.uni0050
ENCODING 80
SWIDTH 621 0
DWIDTH 18 0
BBX 16 24 1 0
BITMAP
FFE0
FFF8
FFFC
FFFE
F03E
F01F
F00F
F00F
F00F
F01F
F03E
FFFE
FFFC
FFF8
FFE0
F000
F000
F000
F000
F000
F000
F000
F000
F000
ENDCHAR
STARTCHAR ch51.uni0051
ENCODING 81
SWIDTH 621 0
DWIDTH 18 0
BBX 16 26 1 -2
BITMAP
03C0
0FF0
1FF8
3FFC
3E7C
7C3E
781E
781E
F81F
F81F
F00F
F00F
F00F
F00F
F89F
F9DF
7BDE
79FE
7CFE
3EFC
3FF8
1FF8
0FFC
03DE
001C
0008
ENDCHAR
STARTCHAR ch52.uni0052
ENCODING 82
SWIDTH 621 0
DWIDTH 18 0
BBX 16 24 1 0
BITMAP
FFE0
FFF8
FFFC
FFFE
F03E
F01F
F00F
F00F
F00F
F01E
F07E
FFFC
FFF0
FFF0
FFFC
F03C
F03E
F01E
F01E
F01E
F01F
F00F
F00F
F00F
ENDCHAR
STARTCHAR ch53.uni0053
ENCODING 83
SWIDTH 2466 0
DWIDTH 18 0
BBX 16 24 1 0
BITMAP
07F0
1FFC
3FFE
3FFE
7C1F
780F
780C
7C00
7E00
3FC0
1FF0
0FF8
03FE
007E
001F
001F
300F
F00F
F80F
7C1F
7FFE
3FFE
1FFC
07F0
ENDCHAR
STARTCHAR ch54.uni0054
ENCODING 84
SWIDTH 2466 0
DWIDTH 18 0
BBX 16 24 1 0
BITMAP
FFFF
FFFF
FFFF
FFFF
03C0
03C0
03C0
03C0
03C0
03C0
03C0
03C0
03C0
03C0
03C0
03C0
03C0
03C0
03C0
03C0
03C0
03C0
03C0
03C0
ENDCHAR
STARTCHAR ch55.uni0055
ENCODING 85
SWIDTH 2466 0
DWIDTH 18 0
BBX 16 24 1 0
BITMAP
F00F
F00F
F00F
F00F
F00F
F00F
F00F
F00F
F00F
F00F
F00F
F00F
F00F
F00F
F00F
F00F
F00F
F81F
781E
7C3E
7FFE
3FFC
1FF8
07E0
ENDCHAR
STARTCHAR ch56.uni0056
ENCODING 86
SWIDTH 2466 0
DWIDTH 18 0
BBX 16 24 1 0
BITMAP
F00F
F00F
F00F
F81F
781E
781E
781E
781E
3C3C
3C3C
3C3C
3C3C
1C38
1E78
1E78
1E78
0E70
0FF0
0FF0
0FF0
07E0
07E0
07E0
07E0
ENDCHAR
STARTCHAR ch57.uni0057
ENCODING 87
SWIDTH 2466 0
DWIDTH 18 0
BBX 16 24 1 0
BITMAP
F18F
F18F
F18F
F18F
F3CF
F3CF
F3CF
F3CF
73CE
77EE
77EE
77EE
7FFE
7E7E
7E7E
7E7E
3E7C
3E7C
3C3C
3C3C
3C3C
3C3C
3C3C
3C3C
ENDCHAR
STARTCHAR ch58.uni0058
ENCODING 88
SWIDTH 2466 0
DWIDTH 18 0
BBX 16 24 1 0
BITMAP
781E
781E
3C3C
3C3C
1E78
1E78
0FF0
0FF0
07E0
07E0
03C0
03C0
07E0
07E0
0FF0
0FF0
1E78
1E78
3C3C
3C3C
781E
781E
F00F
F00F
ENDCHAR
STARTCHAR ch59.uni0059
ENCODING 89
SWIDTH 2466 0
DWIDTH 18 0
BBX 16 24 1 0
BITMAP
F81F
F81F
781E
7C3E
3C3C
3C3C
3C3C
1E78
1E78
0E70
0E70
07E0
07E0
07E0
03C0
03C0
03C0
03C0
03C0
03C0
03C0
03C0
03C0
03C0
ENDCHAR
STARTCHAR ch5a.uni005A
ENCODING 90
SWIDTH 2466 0
DWIDTH 18 0
BBX 16 24 1 0
BITMAP
FFFF
FFFF
FFFF
FFFF
001F
003E
003E
007C
00F8
01F0
01F0
03E0
07C0
0F80
0F80
1F00
3E00
7C00
7C00
F800
FFFF
FFFF
FFFF
FFFF
ENDCHAR
STARTCHAR ch5b.uni005B
ENCODING 91
SWIDTH 2466 0
DWIDTH 18 0
BBX 8 30 7 -3
BITMAP
FF00
FF00
FF00
FF00
F000
F000
F000
F000
F000
F000
F000
F000
F000
F000
F000
F000
F000
F000
F000
F000
F000
F000
F000
F000
F000
F000
FF00
FF00
FF00
FF00
ENDCHAR
STARTCHAR ch5c.uni005C
ENCODING 92
SWIDTH 2466 0
DWIDTH 18 0
BBX 12 24 3 0
BITMAP
F000
7000
7800
7800
3800
3C00
3C00
1C00
1E00
1E00
0E00
0F00
0F00
0700
0780
0780
0380
03C0
03C0
01C0
01E0
01E0
00E0
00F0
ENDCHAR
STARTCHAR ch5d.uni005D
ENCODING 93
SWIDTH 2466 0
DWIDTH 18 0
BBX 8 30 3 -3
BITMAP
FF00
FF00
FF00
FF00
0F00
0F00
0F00
0F00
0F00
0F00
0F00
0F00
0F00
0F00
0F00
0F00
0F00
0F00
0F00
0F00
0F00
0F00
0F00
0F00
0F00
0F00
FF00
FF00
FF00
FF00
ENDCHAR
STARTCHAR ch5e.uni005E
ENCODING 94
SWIDTH 2466 0
DWIDTH 18 0
BBX 12 24 3 0
BITMAP
0F00
0F00
0F00
0F00
0F00
0F00
0F00
0F00
0F00
0F00
0F00
0F00
0F00
CF30
7FE0
7FE0
3FC0
3FC0
1F80
1F80
0F00
0F00
0600
0600
ENDCHAR
STARTCHAR ch5f.uni005F
ENCODING 95
SWIDTH 2466 0
DWIDTH 18 0
BBX 18 4 0 -5
BITMAP
FFFFC000
FFFFC000
FFFFC000
FFFFC000
ENDCHAR
STARTCHAR ch60.uni0060
ENCODING 96
SWIDTH 2466 0
DWIDTH 18 0
BBX 5 10 6 14
BITMAP
F800
F800
F800
F800
F800
E000
6000
7000
3800
1000
ENDCHAR
STARTCHAR ch61.uni0061
ENCODING 97
SWIDTH 2466 0
DWIDTH 18 0
BBX 16 18 1 0
BITMAP
07F0
3FFC
7FFE
3E3E
300F
000F
003F
07FF
3FFF
7FCF
7E0F
F80F
F01F
F87F
7FFF
7FEF
3FCF
0F0F
ENDCHAR
STARTCHAR ch62.uni0062
ENCODING 98
SWIDTH 2466 0
DWIDTH 18 0
BBX 16 24 1 0
BITMAP
F000
F000
F000
F000
F000
F000
F1E0
F7F8
F7FC
FFFE
FC3E
F81F
F00F
F00F
F00F
F00F
F00F
F00F
F81F
FC3E
FFFE
F7FC
F7F8
F1E0
ENDCHAR
STARTCHAR ch63.uni0063
ENCODING 99
SWIDTH 2466 0
DWIDTH 18 0
BBX 16 18 1 0
BITMAP
07E0
1FF8
3FFC
7FFE
7C3E
F81F
F00C
F000
F000
F000
F000
F000
F80C
7C1F
7FFE
3FFC
1FF8
07E0
ENDCHAR
STARTCHAR ch64.uni0064
ENCODING 100
SWIDTH 2466 0
DWIDTH 18 0
BBX 16 24 1 0
BITMAP
000F
000F
000F
000F
000F
000F
078F
1FEF
3FEF
7FFF
7C3F
F81F
F00F
F00F
F00F
F00F
F00F
F00F
F81F
7C3F
7FFF
3FEF
1FEF
078F
ENDCHAR
STARTCHAR ch65.uni0065
ENCODING 101
SWIDTH 2466 0
DWIDTH 18 0
BBX 16 18 1 0
BITMAP
07E0
1FF8
3FFC
7FFE
7C3E
F81F
F00F
FFFF
FFFF
FFFF
F000
F000
F80C
7C1F
7FFE
3FFC
1FF8
07E0
ENDCHAR
STARTCHAR ch66.uni0066
ENCODING 102
SWIDTH 2466 0
DWIDTH 18 0
BBX 14 24 2 0
BITMAP
00FC
03FC
07FC
07FC
0F80
0F00
0F00
0F00
0F00
FFFC
FFFC
FFFC
FFFC
0F00
0F00
0F00
0F00
0F00
0F00
0F00
0F00
0F00
0F00
0F00
ENDCHAR
STARTCHAR ch67.uni0067
ENCODING 103
SWIDTH 2466 0
DWIDTH 18 0
BBX 16 24 1 -6
BITMAP
078F
1FEF
3FEF
7FFF
7C3F
F81F
F00F
F00F
F00F
F00F
F00F
F81F
7C3F
7FFF
3FEF
1FEF
078F
000F
201F
7C3E
FFFE
7FFC
1FF0
03C0
ENDCHAR
STARTCHAR ch68.uni0068
ENCODING 104
SWIDTH 2466 0
DWIDTH 18 0
BBX 16 24 1 0
BITMAP
F000
F000
F000
F000
F000
F000
F1F8
F7FC
F7FE
FFFE
FC1F
F80F
F80F
F00F
F00F
F00F
F00F
F00F
F00F
F00F
F00F
F00F
F00F
F00F
ENDCHAR
STARTCHAR ch69.uni0069
ENCODING 105
SWIDTH 2466 0
DWIDTH 18 0
BBX 16 25 1 0
BITMAP
03C0
03C0
03C0
03C0
03C0
0000
0000
7FC0
7FC0
7FC0
7FC0
03C0
03C0
03C0
03C0
03C0
03C0
03C0
03C0
03C0
03C0
FFFF
FFFF
FFFF
FFFF
ENDCHAR
STARTCHAR ch6a.uni006A
ENCODING 106
SWIDTH 2466 0
DWIDTH 18 0
BBX 11 31 2 -6
BITMAP
01E0
01E0
01E0
01E0
01E0
0000
0000
FFE0
FFE0
FFE0
FFE0
01E0
01E0
01E0
01E0
01E0
01E0
01E0
01E0
01E0
01E0
01E0
01E0
01E0
01E0
01E0
63E0
7FC0
FFC0
FF80
3E00
ENDCHAR
STARTCHAR ch6b.uni006B
ENCODING 107
SWIDTH 2466 0
DWIDTH 18 0
BBX 17 24 1 0
BITMAP
F0000000
F0000000
F0000000
F0000000
F0000000
F0000000
F03E0000
F07C0000
F0F80000
F1F00000
F3E00000
F7C00000
FF800000
FF000000
FF000000
FF800000
FFC00000
FBE00000
F1F00000
F0F80000
F07C0000
F07E0000
F03F0000
F01F8000
ENDCHAR
STARTCHAR ch6c.uni006C
ENCODING 108
SWIDTH 2466 0
DWIDTH 18 0
BBX 16 24 1 0
BITMAP
3FC0
3FC0
3FC0
3FC0
03C0
03C0
03C0
03C0
03C0
03C0
03C0
03C0
03C0
03C0
03C0
03C0
03C0
03C0
03C0
03C0
FFFF
FFFF
FFFF
FFFF
ENDCHAR
STARTCHAR ch6d.uni006D
ENCODING 109
SWIDTH 2466 0
DWIDTH 18 0
BBX 16 18 1 0
BITMAP
E71C
EFBE
EFFE
FFFF
F3CF
F3CF
F3CF
F3CF
F3CF
F3CF
F3CF
F3CF
F3CF
F3CF
F3CF
F3CF
F3CF
F3CF
ENDCHAR
STARTCHAR ch6e.uni006E
ENCODING 110
SWIDTH 2466 0
DWIDTH 18 0
BBX 16 18 1 0
BITMAP
F1F8
F7FC
F7FE
FFFE
FC1F
F80F
F80F
F00F
F00F
F00F
F00F
F00F
F00F
F00F
F00F
F00F
F00F
F00F
ENDCHAR
STARTCHAR ch6f.uni006F
ENCODING 111
SWIDTH 2466 0
DWIDTH 18 0
BBX 16 18 1 0
BITMAP
07E0
1FF8
3FFC
7FFE
7C3E
F81F
F00F
F00F
F00F
F00F
F00F
F00F
F81F
7C3E
7FFE
3FFC
1FF8
07E0
ENDCHAR
STARTCHAR ch70.uni0070
ENCODING 112
SWIDTH 2466 0
DWIDTH 18 0
BBX 16 24 1 -6
BITMAP
F1E0
F7F8
F7FC
FFFE
FC3E
F81F
F00F
F00F
F00F
F00F
F00F
F00F
F81F
FC3E
FFFE
F7FC
F7F8
F1E0
F000
F000
F000
F000
F000
F000
ENDCHAR
STARTCHAR ch71.uni0071
ENCODING 113
SWIDTH 2466 0
DWIDTH 18 0
BBX 16 24 1 -6
BITMAP
078F
1FEF
3FEF
7FFF
7C3F
F81F
F00F
F00F
F00F
F00F
F00F
F00F
F81F
7C3F
7FFF
3FEF
1FEF
078F
000F
000F
000F
000F
000F
000F
ENDCHAR
STARTCHAR ch72.uni0072
ENCODING 114
SWIDTH 2466 0
DWIDTH 18 0
BBX 16 18 1 0
BITMAP
FE1E
FE7F
FE7F
FEFE
0EC2
0F80
0F80
0F00
0F00
0F00
0F00
0F00
0F00
0F00
FFF0
FFF0
FFF0
FFF0
ENDCHAR
STARTCHAR ch73.uni0073
ENCODING 115
SWIDTH 2466 0
DWIDTH 18 0
BBX 16 18 1 0
BITMAP
0FE0
3FFC
7FFE
7C7C
F00C
F000
7E00
7FE0
3FF8
0FFE
00FE
001F
000F
600F
FC3E
FFFE
7FFC
0FF0
ENDCHAR
STARTCHAR ch74.uni0074
ENCODING 116
SWIDTH 2466 0
DWIDTH 18 0
BBX 16 24 1 0
BITMAP
0780
0780
0780
0780
0780
0780
FFFF
FFFF
FFFF
FFFF
0780
0780
0780
0780
0780
0780
0780
0780
0780
07C0
03FF
03FF
01FF
007F
ENDCHAR
STARTCHAR ch75.uni0075
ENCODING 117
SWIDTH 2466 0
DWIDTH 18 0
BBX 16 18 1 0
BITMAP
F00F
F00F
F00F
F00F
F00F
F00F
F00F
F00F
F00F
F00F
F00F
F01F
F01F
F83F
7FFF
7FEF
3FEF
1F8F
ENDCHAR
STARTCHAR ch76.uni0076
ENCODING 118
SWIDTH 2466 0
DWIDTH 18 0
BBX 16 18 1 0
BITMAP
F00F
F81F
781E
781E
781E
3C3C
3C3C
3C3C
1E78
1E78
0E70
0E70
0FF0
07E0
07E0
07E0
03C0
03C0
ENDCHAR
STARTCHAR ch77.uni0077
ENCODING 119
SWIDTH 2466 0
DWIDTH 18 0
BBX 16 18 1 0
BITMAP
F18F
F18F
F18F
F3CF
73CE
73CE
73CE
77EE
77EE
366C
3E7C
3E7C
3E7C
3C3C
1C38
1C38
1818
1818
ENDCHAR
STARTCHAR ch78.uni0078
ENCODING 120
SWIDTH 2466 0
DWIDTH 18 0
BBX 18 18 0 0
BITMAP
FC0FC000
7C0F8000
3E1F0000
1E1E0000
1F3E0000
0F3C0000
07F80000
03F00000
03F00000
03F00000
03F00000
07F80000
0F3C0000
1F3E0000
1E1E0000
3E1F0000
7C0F8000
FC0FC000
ENDCHAR
STARTCHAR ch79.uni0079
ENCODING 121
SWIDTH 2466 0
DWIDTH 18 0
BBX 16 23 1 -5
BITMAP
F81F
F81F
781E
7C1E
3C3E
3C3C
3E3C
1E3C
1E78
0F78
0F78
0F70
07F0
07F0
03E0
03E0
03E0
03C0
07C0
3FC0
3F80
3F80
3E00
ENDCHAR
STARTCHAR ch7a.uni007A
ENCODING 122
SWIDTH 2466 0
DWIDTH 18 0
BBX 16 18 1 0
BITMAP
FFFF
FFFF
FFFF
FFFF
003E
007C
00F8
01F0
03E0
07C0
0F80
1F00
3E00
7C00
FFFF
FFFF
FFFF
FFFF
ENDCHAR
STARTCHAR ch7b.uni007B
ENCODING 123
SWIDTH 2466 0
DWIDTH 18 0
BBX 12 30 3 -3
BITMAP
00F0
03F0
07F0
07F0
0F80
0F00
0F00
0F00
0F00
0F00
0F00
0F00
1E00
FE00
F800
F800
FE00
1E00
0F00
0F00
0F00
0F00
0F00
0F00
0F00
0F80
07F0
07F0
03F0
00F0
ENDCHAR
STARTCHAR ch7c.uni007C
ENCODING 124
SWIDTH 2466 0
DWIDTH 18 0
BBX 4 30 7 -3
BITMAP
F000
F000
F000
F000
F000
F000
F000
F000
F000
F000
F000
F000
F000
F000
F000
F000
F000
F000
F000
F000
F000
F000
F000
F000
F000
F000
F000
F000
F000
F000
ENDCHAR
STARTCHAR ch7d.uni007D
ENCODING 125
SWIDTH 2466 0
DWIDTH 18 0
BBX 12 30 3 -3
BITMAP
F000
FC00
FE00
FE00
1F00
0F00
0F00
0F00
0F00
0F00
0F00
0F00
0780
07F0
01F0
01F0
07F0
0780
0F00
0F00
0F00
0F00
0F00
0F00
0F00
1F00
FE00
FE00
FC00
F000
ENDCHAR
STARTCHAR ch7e.uni007E
ENCODING 126
SWIDTH 2466 0
DWIDTH 18 0
BBX 14 8 2 6
BITMAP
3C00
7E1C
7F1C
F71C
E3BC
E3F8
E1F8
00F0
ENDCHAR
STARTCHAR ch01.uni0001
ENCODING 1
SWIDTH 2466 0
DWIDTH 18 0
BBX 16 16 1 2
BITMAP
2004
700E
F81F
7C3E
3E7C
1FF8
0FF0
07E0
07E0
0FF0
1FF8
3E7C
7C3E
F81F
700E
2004
ENDCHAR
STARTCHAR ch03.uni0003
ENCODING 3
SWIDTH 2466 0
DWIDTH 18 0
BBX 13 30 2 -3
BITMAP
0078
01F8
03F8
03F8
07C0
0780
0780
0780
0780
0780
0780
0780
0780
0780
0780
0780
0780
0780
0780
0780
0780
0780
0780
0780
0780
0F80
FF00
FF00
FE00
F800
ENDCHAR
STARTCHAR ch04.uni0004
ENCODING 4
SWIDTH 2466 0
DWIDTH 18 0
BBX 16 24 1 0
BITMAP
AAAA
5555
AAAA
5555
AAAA
5555
AAAA
5555
AAAA
5555
AAAA
5555
AAAA
5555
AAAA
5555
AAAA
5555
AAAA
5555
AAAA
5555
AAAA
5555
ENDCHAR
STARTCHAR ch05.uni0005
ENCODING 5
SWIDTH 2466 0
DWIDTH 18 0
BBX 16 24 1 0
BITMAP
FFFF
FFFF
FFFF
FFFF
F800
7C00
3E00
1F00
0F80
07C0
03E0
01F0
01F0
03E0
07C0
0F80
1F00
3E00
7C00
F800
FFFF
FFFF
FFFF
FFFF
ENDCHAR
STARTCHAR ch06.uni0006
ENCODING 6
SWIDTH 2466 0
DWIDTH 18 0
BBX 16 15 1 4
BITMAP
C000
F000
FC00
FF00
FFC0
FFF0
FFFC
FFFF
FFFC
FFF0
FFC0
FF00
FC00
F000
C000
ENDCHAR
STARTCHAR ch07.uni0007
ENCODING 7
SWIDTH 2466 0
DWIDTH 18 0
BBX 16 18 1 0
BITMAP
FFFF
FFFF
FFFF
FFFF
1E3C
1E3C
1E3C
1E3C
3E3C
3C3C
3C3C
3C3C
3C3C
3C3C
7C3C
783C
783C
783C
ENDCHAR
STARTCHAR ch08.uni0008
ENCODING 8
SWIDTH 2466 0
DWIDTH 18 0
BBX 16 24 1 0
BITMAP
03C0
03C0
03C0
03C0
0000
0000
0000
03C0
03C0
03C0
03C0
07C0
0F80
3F80
7F00
7C0F
F80F
F00F
F01F
F83E
7FFE
7FFC
3FF8
0FE0
ENDCHAR
STARTCHAR ch0b.uni000B
ENCODING 11
SWIDTH 2466 0
DWIDTH 18 0
BBX 16 23 1 0
BITMAP
C000
F000
FE00
FF80
3FF0
0FFC
01FF
007F
000F
007F
01FF
0FFC
3FF0
FF83
FE0F
F07F
C1FF
0FFC
3FF0
FF80
FE00
F000
C000
ENDCHAR
STARTCHAR ch0c.uni000C
ENCODING 12
SWIDTH 2466 0
DWIDTH 18 0
BBX 16 20 1 0
BITMAP
0030
003C
0078
0078
FFFF
FFFF
FFFF
FFFF
01E0
03C0
03C0
0780
FFFF
FFFF
FFFF
FFFF
1E00
1E00
3C00
0C00
ENDCHAR
STARTCHAR ch0e.uni000E
ENCODING 14
SWIDTH 2466 0
DWIDTH 18 0
BBX 12 24 3 0
BITMAP
0600
0600
0F00
0F00
1F80
1F80
3FC0
3FC0
7FE0
7FE0
CF30
0F00
0F00
0F00
0F00
0F00
0F00
0F00
0F00
0F00
0F00
0F00
0F00
0F00
ENDCHAR
STARTCHAR ch0f.uni000F
ENCODING 15
SWIDTH 2466 0
DWIDTH 18 0
BBX 16 12 1 5
BITMAP
0400
0700
03C0
03F0
FFFC
FFFF
FFFF
FFFC
03F0
03C0
0700
0400
ENDCHAR
STARTCHAR ch10.uni0010
ENCODING 16
SWIDTH 2466 0
DWIDTH 18 0
BBX 16 12 1 5
BITMAP
0020
00E0
03C0
0FC0
3FFF
FFFF
FFFF
3FFF
0FC0
03C0
00E0
0020
ENDCHAR
STARTCHAR ch11.uni0011
ENCODING 17
SWIDTH 2466 0
DWIDTH 18 0
BBX 16 24 1 -6
BITMAP
F00F
F00F
F00F
F00F
F00F
F00F
F00F
F00F
F00F
F00F
F00F
F81F
F81F
FC3F
FFFF
F7EF
F7EF
F18F
F000
F000
F000
F000
F000
F000
ENDCHAR
STARTCHAR ch12.uni0012
ENCODING 18
SWIDTH 2466 0
DWIDTH 18 0
BBX 15 24 2 0
BITMAP
00FC
03FC
07FC
07FC
0F80
0F00
0F00
0F00
0F00
FFFC
FFFC
FFFC
FFFC
0F00
0F00
0F00
0F00
0F00
1F00
3E00
FFFE
FFFE
FFFE
FFFE
ENDCHAR
STARTCHAR ch13.uni0013
ENCODING 19
SWIDTH 2466 0
DWIDTH 18 0
BBX 10 10 4 14
BITMAP
1E00
7F80
7F80
E1C0
E1C0
E1C0
E1C0
7F80
7F80
1E00
ENDCHAR
STARTCHAR ch14.uni0014
ENCODING 20
SWIDTH 2466 0
DWIDTH 18 0
BBX 16 29 1 0
BITMAP
3C3C
3C3C
3C3C
3C3C
0000
07E0
07E0
07E0
07E0
0FF0
0FF0
0FF0
0E70
1E78
1E78
1E78
1C38
3C3C
3C3C
3C3C
3FFC
7FFE
7FFE
7FFE
781E
F81F
F00F
F00F
F00F
ENDCHAR
STARTCHAR ch15.uni0015
ENCODING 21
SWIDTH 2466 0
DWIDTH 18 0
BBX 16 29 1 0
BITMAP
0F08
1FDC
3BF8
10F0
0000
F80F
F80F
FC0F
FC0F
FE0F
FE0F
FF0F
FF0F
FF8F
F78F
F7CF
F3CF
F3EF
F1EF
F1FF
F0FF
F0FF
F07F
F07F
F03F
F03F
F01F
F01F
F00F
ENDCHAR
STARTCHAR ch16.uni0016
ENCODING 22
SWIDTH 2466 0
DWIDTH 18 0
BBX 16 29 1 0
BITMAP
0180
07E0
1FF8
1E78
0810
07E0
07E0
07E0
07E0
0FF0
0FF0
0FF0
0E70
1E78
1E78
1E78
1C38
3C3C
3C3C
3C3C
3FFC
7FFE
7FFE
7FFE
781E
F81F
F00F
F00F
F00F
ENDCHAR
STARTCHAR ch17.uni0017
ENCODING 23
SWIDTH 2466 0
DWIDTH 18 0
BBX 16 24 1 0
BITMAP
00C0
00F0
01E0
01E0
03C0
03C0
03C0
0780
0780
0F00
0F00
0FC0
1FE0
1FF0
3C70
3C78
3C38
7838
7838
F038
FFFF
FFFF
FFFF
FFFF
ENDCHAR
STARTCHAR ch18.uni0018
ENCODING 24
SWIDTH 2466 0
DWIDTH 18 0
BBX 12 18 3 3
BITMAP
FFF0
FFF0
FFF0
FFF0
F000
F000
F000
FFE0
FFE0
FFE0
FFE0
F000
F000
F000
FFF0
FFF0
FFF0
FFF0
ENDCHAR
STARTCHAR ch19.uni0019
ENCODING 25
SWIDTH 2466 0
DWIDTH 18 0
BBX 16 24 1 0
BITMAP
07FF
07FF
07FF
07FF
0FE0
0FE0
0FE0
0EE0
1EE0
1EE0
1EFE
1CFE
3CFE
3CFE
3CE0
3FE0
7FE0
7FE0
7FE0
78E0
F8FF
F0FF
F0FF
F0FF
ENDCHAR
STARTCHAR ch1a.uni001A
ENCODING 26
SWIDTH 2466 0
DWIDTH 18 0
BBX 16 5 1 0
BITMAP
F3CF
F3CF
F3CF
F3CF
F3CF
ENDCHAR
STARTCHAR ch1b.uni001B
ENCODING 27
SWIDTH 2466 0
DWIDTH 18 0
BBX 16 24 1 0
BITMAP
FF00
FF00
FF00
E000
E000
FE00
FE00
E000
E000
FF00
FF00
FF00
003C
00FE
00FF
01E6
01C0
01C0
01C0
01C0
01E6
00FF
00FE
003C
ENDCHAR
STARTCHAR ch1c.uni001C
ENCODING 28
SWIDTH 2466 0
DWIDTH 18 0
BBX 16 29 1 0
BITMAP
3C3C
3C3C
3C3C
3C3C
0000
03C0
0FF0
1FF8
3FFC
3E7C
7C3E
781E
781E
F81F
F81F
F00F
F00F
F00F
F00F
F81F
F81F
781E
781E
7C3E
3E7C
3FFC
1FF8
0FF0
03C0
ENDCHAR
STARTCHAR ch1d.uni001D
ENCODING 29
SWIDTH 2466 0
DWIDTH 18 0
BBX 16 29 1 0
BITMAP
3C3C
3C3C
3C3C
3C3C
0000
F00F
F00F
F00F
F00F
F00F
F00F
F00F
F00F
F00F
F00F
F00F
F00F
F00F
F00F
F00F
F00F
F00F
F81F
781E
7C3E
7FFE
3FFC
1FF8
07E0
ENDCHAR
STARTCHAR ch1e.uni001E
ENCODING 30
SWIDTH 2466 0
DWIDTH 18 0
BBX 16 24 1 0
BITMAP
AAAA
5555
AAAA
5555
AAAA
5555
AAAA
5555
AAAA
5555
AAAA
5555
AAAA
5555
AAAA
5555
AAAA
5555
AAAA
5555
AAAA
5555
AAAA
5555
ENDCHAR
STARTCHAR ch1f.uni001F
ENCODING 31
SWIDTH 2466 0
DWIDTH 18 0
BBX 10 10 4 5
BITMAP
FFC0
FFC0
FFC0
FFC0
FFC0
FFC0
FFC0
FFC0
FFC0
FFC0
ENDCHAR
STARTCHAR ch7f.uni007F
ENCODING 127
SWIDTH 2466 0
DWIDTH 18 0
BBX 10 24 7 0
BITMAP
F000
F000
F000
F000
F000
F000
F000
F000
F000
F000
FFC0
FFC0
FFC0
FFC0
F000
F000
F000
F000
F000
F000
F000
F000
F000
F000
ENDCHAR
STARTCHAR ch80.uni0080
ENCODING 128
SWIDTH 2466 0
DWIDTH 18 0
BBX 15 16 2 0
BITMAP
FFFE
FFFE
7FFC
7FFC
3FF8
3FF8
1FF0
1FF0
0FE0
0FE0
07C0
07C0
0380
0380
0100
0100
ENDCHAR
STARTCHAR ch81.uni0081
ENCODING 129
SWIDTH 2466 0
DWIDTH 18 0
BBX 15 16 2 0
BITMAP
0100
0100
0380
0380
07C0
07C0
0FE0
0FE0
1FF0
1FF0
3FF8
3FF8
7FFC
7FFC
FFFE
FFFE
ENDCHAR
STARTCHAR NameMe.130.uni0082
ENCODING 130
SWIDTH 3600 0
DWIDTH 18 0
BBX 4 13 7 2
BITMAP
F000
F000
F000
F000
0000
0000
0000
0000
0000
F000
F000
F000
F000
ENDCHAR
STARTCHAR NameMe.131.uni0083
ENCODING 131
SWIDTH 3600 0
DWIDTH 18 0
BBX 16 18 1 0
BITMAP
F81F
781E
7C3E
3C3C
3C3C
1E78
1E78
0E70
0FF0
07E0
07E0
03C0
03C0
03C0
03C0
03C0
03C0
03C0
ENDCHAR
ENDFONT
